<mxfile host="app.diagrams.net" modified="2024-07-15T18:02:30.289Z" agent="Mozilla/5.0 (X11; Ubuntu; Linux x86_64; rv:128.0) Gecko/20100101 Firefox/128.0" etag="Ko2N5qxgolUBSH5AHbIn" version="24.6.5" type="github">
  <diagram name="Page-1" id="35ZLZ_sFQuxcxLtexmRZ">
    <mxGraphModel dx="351" dy="678" grid="1" gridSize="10" guides="1" tooltips="1" connect="1" arrows="1" fold="1" page="0" pageScale="1" pageWidth="827" pageHeight="1169" math="0" shadow="0">
      <root>
        <mxCell id="0" />
        <mxCell id="1" parent="0" />
        <mxCell id="HLrQwmdhktpu1qKYuhY9-1" value="Classname" style="swimlane;fontStyle=1;align=center;verticalAlign=top;childLayout=stackLayout;horizontal=1;startSize=26;horizontalStack=0;resizeParent=1;resizeParentMax=0;resizeLast=0;collapsible=1;marginBottom=0;whiteSpace=wrap;html=1;" vertex="1" parent="1">
          <mxGeometry x="120" y="240" width="370" height="260" as="geometry" />
        </mxCell>
        <mxCell id="HLrQwmdhktpu1qKYuhY9-2" value="&lt;div&gt;- employeeID: int[]&lt;/div&gt;&lt;div&gt;- hours: int[]&lt;/div&gt;&lt;div&gt;- wages: int[]&lt;br&gt;&lt;/div&gt;" style="text;strokeColor=none;fillColor=none;align=left;verticalAlign=top;spacingLeft=4;spacingRight=4;overflow=hidden;rotatable=0;points=[[0,0.5],[1,0.5]];portConstraint=eastwest;whiteSpace=wrap;html=1;" vertex="1" parent="HLrQwmdhktpu1qKYuhY9-1">
          <mxGeometry y="26" width="370" height="54" as="geometry" />
        </mxCell>
        <mxCell id="HLrQwmdhktpu1qKYuhY9-3" value="" style="line;strokeWidth=1;fillColor=none;align=left;verticalAlign=middle;spacingTop=-1;spacingLeft=3;spacingRight=3;rotatable=0;labelPosition=right;points=[];portConstraint=eastwest;strokeColor=inherit;" vertex="1" parent="HLrQwmdhktpu1qKYuhY9-1">
          <mxGeometry y="80" width="370" height="8" as="geometry" />
        </mxCell>
        <mxCell id="HLrQwmdhktpu1qKYuhY9-4" value="&lt;div&gt;+ getEmployeeID(index: int): int&lt;/div&gt;&lt;div&gt;+ getEmployeeIDLength(): int&lt;/div&gt;&lt;div&gt;+ getEmployeeWage(employeeID: int): int&lt;/div&gt;&lt;div&gt;+ getEmployeeHours(eployeeID: int): int&lt;br&gt;&lt;/div&gt;&lt;div&gt;&lt;br&gt;&lt;/div&gt;&lt;div&gt;+ setEmployeeHours(employeeID: int, hoursWorked: int)&lt;/div&gt;&lt;div&gt;+ setEmployeeWage(employeeID: int, wage: double)&lt;/div&gt;&lt;div&gt;&lt;br&gt;&lt;/div&gt;&lt;div&gt;+ getEmployeeGrossPay(employeeID: int): double&lt;br&gt;&lt;/div&gt;" style="text;strokeColor=none;fillColor=none;align=left;verticalAlign=top;spacingLeft=4;spacingRight=4;overflow=hidden;rotatable=0;points=[[0,0.5],[1,0.5]];portConstraint=eastwest;whiteSpace=wrap;html=1;" vertex="1" parent="HLrQwmdhktpu1qKYuhY9-1">
          <mxGeometry y="88" width="370" height="172" as="geometry" />
        </mxCell>
      </root>
    </mxGraphModel>
  </diagram>
</mxfile>
